<svg height="512pt" viewBox="0 0 512 512" width="512pt" xmlns="http://www.w3.org/2000/svg"><path d="m504.5 379.007812c4.144531 0 7.5-3.355468 7.5-7.5v-283.5c0-48.527343-39.480469-88.007812-88.007812-88.007812h-335.984376c-48.527343 0-88.007812 39.480469-88.007812 88.007812v335.984376c0 48.527343 39.480469 88.007812 88.007812 88.007812h335.984376c48.527343 0 88.007812-39.480469 88.007812-88.007812v-20.511719c0-4.144531-3.355469-7.5-7.5-7.5s-7.5 3.355469-7.5 7.5v20.511719c0 40.257812-32.75 73.007812-73.007812 73.007812h-335.984376c-40.257812 0-73.007812-32.75-73.007812-73.007812v-335.984376c0-40.257812 32.75-73.007812 73.007812-73.007812h335.984376c40.257812 0 73.007812 32.75 73.007812 73.007812v283.5c0 4.144532 3.355469 7.5 7.5 7.5zm0 0"/><path d="m151.742188 215.828125 21.09375 19.96875c3.007812 2.851563 7.757812 2.71875 10.605468-.289063 2.847656-3.007812 2.714844-7.753906-.292968-10.601562l-21.09375-19.972656c-19.023438-18.003906-49.144532-17.175782-67.152344 1.84375-18.003906 19.019531-17.179688 49.144531 1.839844 67.148437l104.738281 99.144531c8.859375 8.386719 20.195312 12.96875 34.566406 12.96875 12.730469 0 24.898437-6.238281 33.410156-15.707031l148.46875-165.152343c17.511719-19.480469 15.910157-49.570313-3.566406-67.082032-19.480469-17.507812-49.574219-15.90625-67.082031 3.570313l-115.882813 128.90625-24.636719-23.320313c-3.011718-2.851562-7.757812-2.71875-10.605468.289063-2.847656 3.007812-2.714844 7.753906.292968 10.601562l30.226563 28.613281c2.871094 2.542969 7.351563 3.078126 10.730469-.433593l121.027344-134.628907c11.980468-13.324218 32.570312-14.421874 45.898437-2.441406 13.328125 11.980469 14.421875 32.570313 2.441406 45.898438l-148.464843 165.152344c-5.824219 6.476562-14.15625 10.394531-22.859376 10.746093-8.800781.351563-17.273437-2.832031-23.652343-8.871093l-104.734375-99.148438c-13.015625-12.320312-13.578125-32.929688-1.261719-45.945312 12.320313-13.011719 32.929687-13.578126 45.945313-1.257813zm0 0"/></svg>