<?xml version="1.0"?>
<svg xmlns="http://www.w3.org/2000/svg" xmlns:xlink="http://www.w3.org/1999/xlink" xmlns:svgjs="http://svgjs.com/svgjs" version="1.1" width="512" height="512" x="0" y="0" viewBox="0 0 31.586 31.586" style="enable-background:new 0 0 512 512" xml:space="preserve" class=""><g>
<g xmlns="http://www.w3.org/2000/svg">
	<path d="M29.328,2.255H2.256C1.01,2.255,0,3.264,0,4.51v22.564c0,1.245,1.01,2.256,2.256,2.256h27.072   c1.244,0,2.258-1.012,2.258-2.256V4.51C31.586,3.264,30.572,2.255,29.328,2.255z M7.333,3.949c0.622,0,1.128,0.502,1.128,1.128   c0,0.623-0.506,1.125-1.128,1.125c-0.626,0-1.131-0.502-1.131-1.125C6.202,4.451,6.707,3.949,7.333,3.949z M3.947,3.949   c0.623,0,1.127,0.502,1.127,1.128c0,0.623-0.504,1.125-1.127,1.125c-0.624,0-1.129-0.502-1.129-1.125   C2.818,4.451,3.323,3.949,3.947,3.949z M29.328,27.075H2.256V7.92h27.072C29.328,7.92,29.328,27.075,29.328,27.075z" fill="#ffffff" data-original="#000000" style="" class=""/>
	<polygon points="12.645,12.556 5.4,9.243 5.4,10.84 11.003,13.235 11.003,13.266 5.4,15.66 5.4,17.256 12.645,13.943  " fill="#ffffff" data-original="#000000" style="" class=""/>
	<rect x="16.056" y="12.488" width="3.946" height="1.522" fill="#ffffff" data-original="#000000" style="" class=""/>
	<g>
	</g>
	<g>
	</g>
	<g>
	</g>
	<g>
	</g>
	<g>
	</g>
	<g>
	</g>
	<g>
	</g>
	<g>
	</g>
	<g>
	</g>
	<g>
	</g>
	<g>
	</g>
	<g>
	</g>
	<g>
	</g>
	<g>
	</g>
	<g>
	</g>
</g>
<g xmlns="http://www.w3.org/2000/svg">
</g>
<g xmlns="http://www.w3.org/2000/svg">
</g>
<g xmlns="http://www.w3.org/2000/svg">
</g>
<g xmlns="http://www.w3.org/2000/svg">
</g>
<g xmlns="http://www.w3.org/2000/svg">
</g>
<g xmlns="http://www.w3.org/2000/svg">
</g>
<g xmlns="http://www.w3.org/2000/svg">
</g>
<g xmlns="http://www.w3.org/2000/svg">
</g>
<g xmlns="http://www.w3.org/2000/svg">
</g>
<g xmlns="http://www.w3.org/2000/svg">
</g>
<g xmlns="http://www.w3.org/2000/svg">
</g>
<g xmlns="http://www.w3.org/2000/svg">
</g>
<g xmlns="http://www.w3.org/2000/svg">
</g>
<g xmlns="http://www.w3.org/2000/svg">
</g>
<g xmlns="http://www.w3.org/2000/svg">
</g>
</g></svg>
