<?xml version="1.0"?>
<svg xmlns="http://www.w3.org/2000/svg" xmlns:xlink="http://www.w3.org/1999/xlink" xmlns:svgjs="http://svgjs.com/svgjs" version="1.1" width="512" height="512" x="0" y="0" viewBox="0 0 24.591 24.591" style="enable-background:new 0 0 512 512" xml:space="preserve" class=""><g>
<g xmlns="http://www.w3.org/2000/svg">
	<path style="" d="M24.591,12.278v0.947c0,0.524-0.423,0.947-0.947,0.947h-6.629c-0.524,0-0.947-0.423-0.947-0.947   v-0.947c0-0.524,0.423-0.947,0.947-0.947h6.629C24.168,11.331,24.591,11.754,24.591,12.278z M15.043,20.173   c0.05,0.203,0.058,0.358,0.026,0.458c-0.035,0.1-0.143,0.153-0.326,0.153h-3.105c-0.284,0-0.476-0.065-0.577-0.191   c-0.1-0.129-0.192-0.33-0.275-0.599l-0.804-2.982H4.914l-0.838,3.057c-0.084,0.272-0.192,0.461-0.326,0.562   c-0.133,0.1-0.317,0.153-0.551,0.153H0.421c-0.184,0-0.309-0.038-0.375-0.115c-0.068-0.076-0.06-0.258,0.025-0.548L4.903,4.547   c0.083-0.238,0.183-0.421,0.3-0.55C5.319,3.871,5.545,3.806,5.88,3.806h3.155c0.35,0,0.58,0.07,0.688,0.205   c0.108,0.136,0.204,0.323,0.288,0.561L15.043,20.173z M9.217,14.172L7.53,7.918H7.406l-1.714,6.254H9.217z" fill="#ffffff" data-original="#030104" class=""/>
</g>
<g xmlns="http://www.w3.org/2000/svg">
</g>
<g xmlns="http://www.w3.org/2000/svg">
</g>
<g xmlns="http://www.w3.org/2000/svg">
</g>
<g xmlns="http://www.w3.org/2000/svg">
</g>
<g xmlns="http://www.w3.org/2000/svg">
</g>
<g xmlns="http://www.w3.org/2000/svg">
</g>
<g xmlns="http://www.w3.org/2000/svg">
</g>
<g xmlns="http://www.w3.org/2000/svg">
</g>
<g xmlns="http://www.w3.org/2000/svg">
</g>
<g xmlns="http://www.w3.org/2000/svg">
</g>
<g xmlns="http://www.w3.org/2000/svg">
</g>
<g xmlns="http://www.w3.org/2000/svg">
</g>
<g xmlns="http://www.w3.org/2000/svg">
</g>
<g xmlns="http://www.w3.org/2000/svg">
</g>
<g xmlns="http://www.w3.org/2000/svg">
</g>
</g></svg>
