<svg width="80" height="80" viewBox="0 0 80 80" fill="none" xmlns="http://www.w3.org/2000/svg">
<g clip-path="url(#clip0)">
<path d="M36 39.5C37.933 39.5 39.5 37.933 39.5 36V4.5C39.5 2.56701 37.933 1 36 1C34.067 1 32.5 2.56701 32.5 4.5V32.5H4.5C2.56701 32.5 1 34.067 1 36C1 37.933 2.56701 39.5 4.5 39.5H36ZM-2.47487 2.47487L33.5251 38.4749L38.4749 33.5251L2.47487 -2.47487L-2.47487 2.47487Z" fill="white"/>
<path d="M39.5 44C39.5 42.067 37.933 40.5 36 40.5H4.5C2.567 40.5 0.999996 42.067 0.999996 44C0.999996 45.933 2.567 47.5 4.5 47.5L32.5 47.5L32.5 75.5C32.5 77.433 34.067 79 36 79C37.933 79 39.5 77.433 39.5 75.5V44ZM2.47487 82.4749L38.4749 46.4749L33.5251 41.5251L-2.47487 77.5251L2.47487 82.4749Z" fill="white"/>
<path d="M41.5 36C41.5 37.933 43.067 39.5 45 39.5H76.5C78.433 39.5 80 37.933 80 36C80 34.067 78.433 32.5 76.5 32.5H48.5V4.5C48.5 2.56701 46.933 1 45 1C43.067 1 41.5 2.56701 41.5 4.5V36ZM78.5251 -2.47487L42.5251 33.5251L47.4749 38.4749L83.4749 2.47487L78.5251 -2.47487Z" fill="white"/>
<path d="M44.7482 40.7482C42.8152 40.7482 41.2482 42.3152 41.2482 44.2482V75.7482C41.2482 77.6812 42.8152 79.2482 44.7482 79.2482C46.6812 79.2482 48.2482 77.6812 48.2482 75.7482V47.7482H76.2482C78.1812 47.7482 79.7482 46.1812 79.7482 44.2482C79.7482 42.3152 78.1812 40.7482 76.2482 40.7482H44.7482ZM82.7266 77.2769L47.2231 41.7734L42.2734 46.7231L77.7769 82.2266L82.7266 77.2769Z" fill="white"/>
</g>
<defs>
<clipPath id="clip0">
<rect width="80" height="80" fill="white"/>
</clipPath>
</defs>
</svg>
