<?xml version="1.0"?>
<svg xmlns="http://www.w3.org/2000/svg" xmlns:xlink="http://www.w3.org/1999/xlink" xmlns:svgjs="http://svgjs.com/svgjs" version="1.1" width="512" height="512" x="0" y="0" viewBox="0 0 512.09 512.09" style="enable-background:new 0 0 512 512" xml:space="preserve" class=""><g>
<g xmlns="http://www.w3.org/2000/svg">
	<g>
		<path d="M175.262,29.695c-8.86,0-15.991,7.131-15.991,15.991v90.832L27.453,4.7c-6.267-6.267-16.351-6.267-22.618,0    c-6.267,6.267-6.267,16.351,0,22.618l131.818,131.818H45.821c-8.86,0-15.991,7.131-15.991,15.991    c0,8.86,7.131,15.991,15.991,15.991h129.441c8.86,0,15.991-7.131,15.991-15.991V45.686    C191.253,36.826,184.122,29.695,175.262,29.695z" fill="#ffffff" data-original="#000000" style=""/>
	</g>
</g>
<g xmlns="http://www.w3.org/2000/svg">
	<g>
		<path d="M507.255,4.772c-6.267-6.267-16.351-6.267-22.618,0L352.819,136.59V45.686c0-8.86-7.131-15.991-15.991-15.991    s-15.991,7.131-15.991,15.991v129.441c0,4.25,1.657,8.284,4.682,11.309c2.953,3.025,6.987,4.682,11.237,4.682h129.441    c8.86,0,15.991-7.131,15.991-15.991c0-8.86-7.131-15.991-15.991-15.991h-90.76L507.255,27.39    C513.522,21.123,513.522,11.039,507.255,4.772z" fill="#ffffff" data-original="#000000" style=""/>
	</g>
</g>
<g xmlns="http://www.w3.org/2000/svg">
	<g>
		<path d="M507.183,484.79L375.437,352.972h90.832c8.86,0,15.991-7.131,15.991-15.991s-7.131-15.991-15.991-15.991H336.756    c-8.86,0-15.991,7.131-15.991,15.991v129.441c0,8.86,7.131,15.991,15.991,15.991c8.86,0,15.991-7.131,15.991-15.991V375.59    l131.818,131.818c3.097,3.097,7.203,4.682,11.309,4.682c4.106,0,8.212-1.585,11.309-4.682    C513.45,501.141,513.45,490.985,507.183,484.79z" fill="#ffffff" data-original="#000000" style=""/>
	</g>
</g>
<g xmlns="http://www.w3.org/2000/svg">
	<g>
		<path d="M186.571,325.672c-3.025-3.025-7.059-4.682-11.309-4.682H45.821c-8.86,0-15.991,7.131-15.991,15.991    s7.131,15.991,15.991,15.991h90.832L4.835,484.79c-6.267,6.267-6.267,16.351,0,22.618c3.097,3.097,7.203,4.682,11.309,4.682    c4.106,0,8.212-1.585,11.309-4.682L159.271,375.59v90.832c0,8.86,7.131,15.991,15.991,15.991c8.86,0,15.991-7.131,15.991-15.991    V336.981C191.253,332.732,189.596,328.698,186.571,325.672z" fill="#ffffff" data-original="#000000" style=""/>
	</g>
</g>
<g xmlns="http://www.w3.org/2000/svg">
</g>
<g xmlns="http://www.w3.org/2000/svg">
</g>
<g xmlns="http://www.w3.org/2000/svg">
</g>
<g xmlns="http://www.w3.org/2000/svg">
</g>
<g xmlns="http://www.w3.org/2000/svg">
</g>
<g xmlns="http://www.w3.org/2000/svg">
</g>
<g xmlns="http://www.w3.org/2000/svg">
</g>
<g xmlns="http://www.w3.org/2000/svg">
</g>
<g xmlns="http://www.w3.org/2000/svg">
</g>
<g xmlns="http://www.w3.org/2000/svg">
</g>
<g xmlns="http://www.w3.org/2000/svg">
</g>
<g xmlns="http://www.w3.org/2000/svg">
</g>
<g xmlns="http://www.w3.org/2000/svg">
</g>
<g xmlns="http://www.w3.org/2000/svg">
</g>
<g xmlns="http://www.w3.org/2000/svg">
</g>
</g></svg>
