<?xml version="1.0"?>
<svg xmlns="http://www.w3.org/2000/svg" xmlns:xlink="http://www.w3.org/1999/xlink" xmlns:svgjs="http://svgjs.com/svgjs" version="1.1" width="512" height="512" x="0" y="0" viewBox="0 0 512.072 512.072" style="enable-background:new 0 0 512 512" xml:space="preserve" class=""><g>
<g xmlns="http://www.w3.org/2000/svg">
	<g>
		<path d="M186.526,163.872L54.78,32.054h90.832c8.86,0,15.991-7.131,15.991-15.991c0-8.86-7.131-15.991-15.991-15.991L16.171,0    c-4.25,0-8.284,1.657-11.309,4.682S0.18,11.741,0.18,15.991v129.513c0,8.788,7.131,15.991,15.991,15.991    c8.86,0,15.991-7.131,15.991-15.991V54.672L163.908,186.49c3.097,3.097,7.203,4.682,11.309,4.682    c4.106,0,8.212-1.585,11.309-4.682C192.792,180.223,192.792,170.138,186.526,163.872z" fill="#ffffff" data-original="#000000" style="" class=""/>
	</g>
</g>
<g xmlns="http://www.w3.org/2000/svg">
	<g>
		<path d="M507.21,4.754c-3.025-3.025-7.059-4.682-11.309-4.682H366.46c-8.86,0-15.991,7.131-15.991,15.991    s7.131,15.991,15.991,15.991h90.832L325.474,163.8c-6.267,6.267-6.267,16.351,0,22.618c3.169,3.169,7.203,4.682,11.309,4.682    c4.106,0,8.212-1.585,11.309-4.682L479.91,54.672v90.832c0,8.86,7.131,15.991,15.991,15.991s15.991-7.131,15.991-15.991V16.063    C511.892,11.813,510.235,7.779,507.21,4.754z" fill="#ffffff" data-original="#000000" style="" class=""/>
	</g>
</g>
<g xmlns="http://www.w3.org/2000/svg">
	<g>
		<path d="M495.901,350.577c-8.86,0-15.991,7.131-15.991,15.991V457.4L348.092,325.654c-6.267-6.267-16.351-6.267-22.618,0    c-6.267,6.267-6.267,16.351,0,22.618L457.22,480.09h-90.76c-8.86,0-15.991,7.131-15.991,15.991s7.131,15.991,15.991,15.991    h129.441c8.86,0,15.991-7.131,15.991-15.991V366.64C511.892,357.781,504.761,350.577,495.901,350.577z" fill="#ffffff" data-original="#000000" style="" class=""/>
	</g>
</g>
<g xmlns="http://www.w3.org/2000/svg">
	<g>
		<path d="M186.526,325.654c-6.195-6.267-16.351-6.267-22.546,0L32.162,457.4v-90.76c0-8.86-7.131-15.991-15.991-15.991    c-8.86,0-15.991,7.131-15.991,15.991v129.441c0,4.25,1.657,8.284,4.682,11.309s7.059,4.682,11.309,4.682h129.441    c8.86,0,15.991-7.131,15.991-15.991s-7.131-15.991-15.991-15.991H54.78l131.746-131.818    C192.792,342.006,192.792,331.921,186.526,325.654z" fill="#ffffff" data-original="#000000" style="" class=""/>
	</g>
</g>
<g xmlns="http://www.w3.org/2000/svg">
</g>
<g xmlns="http://www.w3.org/2000/svg">
</g>
<g xmlns="http://www.w3.org/2000/svg">
</g>
<g xmlns="http://www.w3.org/2000/svg">
</g>
<g xmlns="http://www.w3.org/2000/svg">
</g>
<g xmlns="http://www.w3.org/2000/svg">
</g>
<g xmlns="http://www.w3.org/2000/svg">
</g>
<g xmlns="http://www.w3.org/2000/svg">
</g>
<g xmlns="http://www.w3.org/2000/svg">
</g>
<g xmlns="http://www.w3.org/2000/svg">
</g>
<g xmlns="http://www.w3.org/2000/svg">
</g>
<g xmlns="http://www.w3.org/2000/svg">
</g>
<g xmlns="http://www.w3.org/2000/svg">
</g>
<g xmlns="http://www.w3.org/2000/svg">
</g>
<g xmlns="http://www.w3.org/2000/svg">
</g>
</g></svg>
