<svg width="80" height="80" viewBox="0 0 80 80" fill="none" xmlns="http://www.w3.org/2000/svg">
<g clip-path="url(#clip0)">
<path d="M4 0.5C2.067 0.5 0.5 2.067 0.5 4V35.5C0.5 37.433 2.067 39 4 39C5.933 39 7.5 37.433 7.5 35.5V7.5H35.5C37.433 7.5 39 5.933 39 4C39 2.067 37.433 0.5 35.5 0.5H4ZM42.4749 37.5251L6.47487 1.52513L1.52513 6.47487L37.5251 42.4749L42.4749 37.5251Z" fill="white"/>
<path d="M0.5 76C0.5 77.933 2.067 79.5 4 79.5H35.5C37.433 79.5 39 77.933 39 76C39 74.067 37.433 72.5 35.5 72.5H7.5V44.5C7.5 42.567 5.933 41 4 41C2.067 41 0.5 42.567 0.5 44.5V76ZM37.5251 37.5251L1.52513 73.5251L6.47487 78.4749L42.4749 42.4749L37.5251 37.5251Z" fill="white"/>
<path d="M79.5 4C79.5 2.067 77.933 0.5 76 0.5H44.5C42.567 0.5 41 2.067 41 4C41 5.933 42.567 7.5 44.5 7.5H72.5V35.5C72.5 37.433 74.067 39 76 39C77.933 39 79.5 37.433 79.5 35.5V4ZM42.4749 42.4749L78.4749 6.47487L73.5251 1.52513L37.5251 37.5251L42.4749 42.4749Z" fill="white"/>
<path d="M76 79.5C77.933 79.5 79.5 77.933 79.5 76V44.5C79.5 42.567 77.933 41 76 41C74.067 41 72.5 42.567 72.5 44.5V72.5H44.5C42.567 72.5 41 74.067 41 76C41 77.933 42.567 79.5 44.5 79.5H76ZM37.5251 42.4749L73.5251 78.4749L78.4749 73.5251L42.4749 37.5251L37.5251 42.4749Z" fill="white"/>
</g>
<defs>
<clipPath id="clip0">
<rect width="80" height="80" fill="white"/>
</clipPath>
</defs>
</svg>
