<?xml version="1.0"?>
<svg xmlns="http://www.w3.org/2000/svg" xmlns:xlink="http://www.w3.org/1999/xlink" xmlns:svgjs="http://svgjs.com/svgjs" version="1.1" width="512" height="512" x="0" y="0" viewBox="0 0 74 74" style="enable-background:new 0 0 512 512" xml:space="preserve" class=""><g><g xmlns="http://www.w3.org/2000/svg" id="Numbers"><text fill="rgb(0,0,0)" font-family="ArialMT, Arial" font-size="18" transform="translate(37.994 -1010.544)" svgjs:data="{&quot;leading&quot;:&quot;1.3&quot;}">9<tspan x="-5.005" y="124" svgjs:data="{&quot;leading&quot;:&quot;1.3&quot;}">19</tspan><tspan x="-5.005" y="248" svgjs:data="{&quot;leading&quot;:&quot;1.3&quot;}">29</tspan><tspan x="-5.005" y="372" svgjs:data="{&quot;leading&quot;:&quot;1.3&quot;}">39</tspan><tspan x="-5.005" y="496" svgjs:data="{&quot;leading&quot;:&quot;1.3&quot;}">49</tspan><tspan x="-5.005" y="620" svgjs:data="{&quot;leading&quot;:&quot;1.3&quot;}">59</tspan><tspan x="-5.005" y="744" svgjs:data="{&quot;leading&quot;:&quot;1.3&quot;}">69</tspan><tspan x="-5.005" y="868" svgjs:data="{&quot;leading&quot;:&quot;1.3&quot;}">79</tspan><tspan x="-5.005" y="992" svgjs:data="{&quot;leading&quot;:&quot;1.3&quot;}">89</tspan><tspan x="-5.005" y="1116" svgjs:data="{&quot;leading&quot;:&quot;1.3&quot;}">99</tspan><tspan x="-10.011" y="1240" svgjs:data="{&quot;leading&quot;:&quot;1.3&quot;}">109</tspan><tspan letter-spacing="-.074em" x="-9.343" y="1364" svgjs:data="{&quot;leading&quot;:&quot;1.3&quot;}">1</tspan><tspan x="-.668" y="1364" svgjs:data="{&quot;leading&quot;:&quot;1.3&quot;}">19</tspan><tspan x="-10.011" y="1488" svgjs:data="{&quot;leading&quot;:&quot;1.3&quot;}">129</tspan><tspan x="-10.011" y="1612" svgjs:data="{&quot;leading&quot;:&quot;1.3&quot;}">139</tspan><tspan x="-10.011" y="1736" svgjs:data="{&quot;leading&quot;:&quot;1.3&quot;}">149</tspan><tspan x="-10.011" y="1860" svgjs:data="{&quot;leading&quot;:&quot;1.3&quot;}">159</tspan><tspan x="-10.011" y="1984" svgjs:data="{&quot;leading&quot;:&quot;1.3&quot;}">169</tspan><tspan x="-10.011" y="2108" svgjs:data="{&quot;leading&quot;:&quot;1.3&quot;}">179</tspan><tspan x="-10.011" y="2232" svgjs:data="{&quot;leading&quot;:&quot;1.3&quot;}">189</tspan><tspan x="-10.011" y="2356" svgjs:data="{&quot;leading&quot;:&quot;1.3&quot;}">199</tspan><tspan x="-10.011" y="2480" svgjs:data="{&quot;leading&quot;:&quot;1.3&quot;}">209</tspan><tspan x="-10.011" y="2604" svgjs:data="{&quot;leading&quot;:&quot;1.3&quot;}">219</tspan><tspan x="-10.011" y="2728" svgjs:data="{&quot;leading&quot;:&quot;1.3&quot;}">229</tspan><tspan x="-10.011" y="2852" svgjs:data="{&quot;leading&quot;:&quot;1.3&quot;}">239</tspan><tspan x="-10.011" y="2976" svgjs:data="{&quot;leading&quot;:&quot;1.3&quot;}">249</tspan><tspan x="-10.011" y="3100" svgjs:data="{&quot;leading&quot;:&quot;1.3&quot;}">259</tspan><tspan x="-10.011" y="3224" svgjs:data="{&quot;leading&quot;:&quot;1.3&quot;}">269</tspan><tspan x="-10.011" y="3348" svgjs:data="{&quot;leading&quot;:&quot;1.3&quot;}">279</tspan><tspan x="-10.011" y="3472" svgjs:data="{&quot;leading&quot;:&quot;1.3&quot;}">289</tspan><tspan x="-10.011" y="3596" svgjs:data="{&quot;leading&quot;:&quot;1.3&quot;}">299</tspan></text></g><g xmlns="http://www.w3.org/2000/svg" id="Icons"><path d="m65 72h-56a7.008 7.008 0 0 1 -7-7v-56a7.008 7.008 0 0 1 7-7h56a7.008 7.008 0 0 1 7 7v56a7.008 7.008 0 0 1 -7 7zm-56-68a5.006 5.006 0 0 0 -5 5v56a5.006 5.006 0 0 0 5 5h56a5.006 5.006 0 0 0 5-5v-56a5.006 5.006 0 0 0 -5-5z" fill="#ffffff" data-original="#000000" style="" class=""/><path d="m62 25.615h-2v-11.615h-11.615v-2h12.615a1 1 0 0 1 1 1z" fill="#ffffff" data-original="#000000" style="" class=""/><path d="m39.272 21h25.456v2h-25.456z" transform="matrix(.707 -.707 .707 .707 -.326 43.213)" fill="#ffffff" data-original="#000000" style="" class=""/><path d="m14 25.615h-2v-12.615a1 1 0 0 1 1-1h12.615v2h-11.615z" fill="#ffffff" data-original="#000000" style="" class=""/><path d="m21 9.272h2v25.456h-2z" transform="matrix(.707 -.707 .707 .707 -9.113 22)" fill="#ffffff" data-original="#000000" style="" class=""/><path d="m61 62h-12.615v-2h11.615v-11.615h2v12.615a1 1 0 0 1 -1 1z" fill="#ffffff" data-original="#000000" style="" class=""/><path d="m51 39.272h2v25.456h-2z" transform="matrix(.707 -.707 .707 .707 -21.539 52)" fill="#ffffff" data-original="#000000" style="" class=""/><path d="m25.615 62h-12.615a1 1 0 0 1 -1-1v-12.615h2v11.615h11.615z" fill="#ffffff" data-original="#000000" style="" class=""/><path d="m9.272 51h25.456v2h-25.456z" transform="matrix(.707 -.707 .707 .707 -30.326 30.787)" fill="#ffffff" data-original="#000000" style="" class=""/></g></g></svg>
