<?xml version="1.0"?>
<svg xmlns="http://www.w3.org/2000/svg" xmlns:xlink="http://www.w3.org/1999/xlink" xmlns:svgjs="http://svgjs.com/svgjs" version="1.1" width="512" height="512" x="0" y="0" viewBox="0 0 24.966 24.966" style="enable-background:new 0 0 512 512" xml:space="preserve"><g>
<g xmlns="http://www.w3.org/2000/svg">
	<path style="" d="M24.966,12.466v0.961c0,0.532-0.43,0.961-0.961,0.961h-1.923v1.923c0,0.532-0.43,0.961-0.961,0.961   H20.16c-0.532,0-0.961-0.43-0.961-0.961v-1.923h-1.923c-0.532,0-0.961-0.43-0.961-0.961v-0.961c0-0.532,0.43-0.961,0.961-0.961   h1.923V9.582c0-0.532,0.43-0.961,0.961-0.961h0.961c0.532,0,0.961,0.43,0.961,0.961v1.923h1.923   C24.536,11.504,24.966,11.934,24.966,12.466z M15.272,20.482c0.051,0.206,0.059,0.364,0.026,0.465   c-0.036,0.102-0.145,0.156-0.331,0.156h-3.153c-0.288,0-0.484-0.066-0.586-0.194c-0.102-0.131-0.195-0.335-0.279-0.608   l-0.816-3.028H4.989l-0.85,3.104c-0.086,0.276-0.195,0.468-0.331,0.57c-0.136,0.102-0.322,0.156-0.56,0.156H0.427   c-0.187,0-0.314-0.038-0.381-0.117c-0.069-0.077-0.061-0.262,0.025-0.557L4.978,4.617c0.085-0.241,0.186-0.428,0.305-0.559   C5.4,3.93,5.629,3.864,5.97,3.864h3.203c0.356,0,0.588,0.071,0.699,0.209c0.11,0.138,0.207,0.328,0.292,0.569L15.272,20.482z    M9.357,14.389l-1.712-6.35H7.519l-1.74,6.35H9.357z" fill="#ffffff" data-original="#030104"/>
</g>
<g xmlns="http://www.w3.org/2000/svg">
</g>
<g xmlns="http://www.w3.org/2000/svg">
</g>
<g xmlns="http://www.w3.org/2000/svg">
</g>
<g xmlns="http://www.w3.org/2000/svg">
</g>
<g xmlns="http://www.w3.org/2000/svg">
</g>
<g xmlns="http://www.w3.org/2000/svg">
</g>
<g xmlns="http://www.w3.org/2000/svg">
</g>
<g xmlns="http://www.w3.org/2000/svg">
</g>
<g xmlns="http://www.w3.org/2000/svg">
</g>
<g xmlns="http://www.w3.org/2000/svg">
</g>
<g xmlns="http://www.w3.org/2000/svg">
</g>
<g xmlns="http://www.w3.org/2000/svg">
</g>
<g xmlns="http://www.w3.org/2000/svg">
</g>
<g xmlns="http://www.w3.org/2000/svg">
</g>
<g xmlns="http://www.w3.org/2000/svg">
</g>
</g></svg>
