<?xml version="1.0"?>
<svg xmlns="http://www.w3.org/2000/svg" xmlns:xlink="http://www.w3.org/1999/xlink" xmlns:svgjs="http://svgjs.com/svgjs" version="1.1" width="512" height="512" x="0" y="0" viewBox="0 0 591.804 591.804" style="enable-background:new 0 0 512 512" xml:space="preserve" class=""><g>
<g xmlns="http://www.w3.org/2000/svg">
	<g>
		<path d="M581.541,285.6h-71.4v-71.4c0-5.712-4.488-10.2-10.2-10.2s-10.2,4.488-10.2,10.2v71.4h-71.4    c-5.712,0-10.2,4.488-10.2,10.2s4.488,10.2,10.2,10.2h71.4v71.4c0,5.712,4.488,10.2,10.2,10.2s10.2-4.488,10.2-10.2V306h71.4    c5.712,0,10.2-4.488,10.2-10.2S587.049,285.6,581.541,285.6z" fill="#ffffff" data-original="#000000" style="" class=""/>
		<path d="M244.125,6.324C242.697,2.448,238.821,0,234.741,0c-4.08,0-7.956,2.652-9.588,6.528l-224.4,571.2    c-2.04,5.304,0.612,11.22,5.712,13.26c5.304,2.04,11.22-0.612,13.26-5.712l77.52-197.472h274.584l77.52,197.472    c1.632,4.08,5.508,6.528,9.588,6.528c1.224,0,2.448-0.204,3.672-0.612c5.304-2.04,7.752-7.956,5.712-13.26L244.125,6.324z     M105.405,367.2L234.741,37.944L364.077,367.2H105.405z" fill="#ffffff" data-original="#000000" style="" class=""/>
		<path d="M230.049,112.2l-87.108,221.544c-1.02,2.652,0.204,5.508,2.856,6.528c0.612,0.204,1.224,0.408,1.836,0.408    c2.04,0,3.876-1.224,4.692-3.264l87.108-221.544c1.02-2.652-0.204-5.508-2.856-6.528    C233.925,108.12,231.069,109.548,230.049,112.2z" fill="#ffffff" data-original="#000000" style="" class=""/>
		<path d="M116.829,414.12c-2.652-1.02-5.508,0.204-6.528,2.856L46.449,579.36c-1.02,2.652,0.204,5.508,2.856,6.528    c0.612,0.204,1.224,0.408,1.836,0.408c2.04,0,3.876-1.224,4.692-3.264l63.852-162.384    C120.705,418.2,119.277,415.14,116.829,414.12z" fill="#ffffff" data-original="#000000" style="" class=""/>
	</g>
</g>
<g xmlns="http://www.w3.org/2000/svg">
</g>
<g xmlns="http://www.w3.org/2000/svg">
</g>
<g xmlns="http://www.w3.org/2000/svg">
</g>
<g xmlns="http://www.w3.org/2000/svg">
</g>
<g xmlns="http://www.w3.org/2000/svg">
</g>
<g xmlns="http://www.w3.org/2000/svg">
</g>
<g xmlns="http://www.w3.org/2000/svg">
</g>
<g xmlns="http://www.w3.org/2000/svg">
</g>
<g xmlns="http://www.w3.org/2000/svg">
</g>
<g xmlns="http://www.w3.org/2000/svg">
</g>
<g xmlns="http://www.w3.org/2000/svg">
</g>
<g xmlns="http://www.w3.org/2000/svg">
</g>
<g xmlns="http://www.w3.org/2000/svg">
</g>
<g xmlns="http://www.w3.org/2000/svg">
</g>
<g xmlns="http://www.w3.org/2000/svg">
</g>
</g></svg>
