<svg width="512" height="512" viewBox="0 0 512 512" fill="none" xmlns="http://www.w3.org/2000/svg">
<path d="M424 64H336V48C336 21.49 314.51 0 288 0H224C197.49 0 176 21.49 176 48V64H88C65.909 64 48 81.909 48 104V136C48 144.837 55.163 152 64 152H448C456.837 152 464 144.837 464 136V104C464 81.909 446.091 64 424 64ZM208 48C208 39.18 215.18 32 224 32H288C296.82 32 304 39.18 304 48V64H208V48Z" fill="white"/>
<path d="M78.364 184C75.509 184 73.234 186.386 73.37 189.238L86.57 466.28C87.79 491.92 108.85 512 134.51 512H377.49C403.15 512 424.21 491.92 425.43 466.28L438.63 189.238C438.766 186.386 436.491 184 433.636 184H78.364ZM320 224C320 215.16 327.16 208 336 208C344.84 208 352 215.16 352 224V432C352 440.84 344.84 448 336 448C327.16 448 320 440.84 320 432V224ZM240 224C240 215.16 247.16 208 256 208C264.84 208 272 215.16 272 224V432C272 440.84 264.84 448 256 448C247.16 448 240 440.84 240 432V224ZM160 224C160 215.16 167.16 208 176 208C184.84 208 192 215.16 192 224V432C192 440.84 184.84 448 176 448C167.16 448 160 440.84 160 432V224Z" fill="white"/>
</svg>
